<?xml version="1.0" encoding="utf-8"?>
<!-- Generator: Adobe Illustrator 16.0.0, SVG Export Plug-In . SVG Version: 6.00 Build 0)  -->
<!DOCTYPE svg PUBLIC "-//W3C//DTD SVG 1.1//EN" "http://www.w3.org/Graphics/SVG/1.1/DTD/svg11.dtd">
<svg version="1.1" id="Layer_1" xmlns="http://www.w3.org/2000/svg" xmlns:xlink="http://www.w3.org/1999/xlink" x="0px" y="0px"
	 width="138px" height="120px" viewBox="0 0 138 120" enable-background="new 0 0 138 120" xml:space="preserve">
<g>
	<g>
		<path fill="#FFFFFF" d="M49.563,33.037c-4.115,1.508-8.674-0.604-10.183-4.72c-1.509-4.116,0.604-8.673,4.719-10.184L87.977,2.046
			c4.112-1.509,8.674,0.604,10.183,4.721c1.509,4.112-0.604,8.673-4.72,10.182L49.563,33.037z"/>
		<path fill="#FFFFFF" d="M49.563,56.788c-4.115,1.508-8.674-0.604-10.183-4.722c-1.509-4.116,0.604-8.673,4.719-10.184
			l43.877-16.087c4.112-1.509,8.674,0.604,10.183,4.721c1.509,4.112-0.604,8.673-4.72,10.182L49.563,56.788z"/>
		<path fill="#FFFFFF" d="M49.563,80.537c-4.115,1.508-8.674-0.604-10.183-4.721c-1.509-4.117,0.604-8.674,4.719-10.186
			l43.877-16.087c4.112-1.508,8.674,0.604,10.183,4.723c1.509,4.111-0.604,8.673-4.72,10.183L49.563,80.537z"/>
	</g>
	<g>
		<g>
			<polygon fill="#FFFFFF" points="1.248,100.271 15.967,100.271 15.967,104.271 6.445,104.271 6.445,107.748 15.576,107.748 
				15.576,111.898 6.445,111.898 6.445,115.488 16.121,115.488 16.121,119.52 1.248,119.52 			"/>
		</g>
		<g>
			<polygon fill="#FFFFFF" points="38.839,100.271 44.076,100.271 44.076,119.529 38.839,119.529 			"/>
		</g>
		<g>
			<path fill="#FFFFFF" d="M63.18,100.889l-0.352,4.119c-4.23-2.445-10.715-1.668-10.829,4.756
				c-0.119,6.416,6.677,7.354,10.985,5.174l0.271,4.207c-7.607,2.369-16.697-0.041-16.657-9.381
				C46.637,100.615,55.801,98.084,63.18,100.889L63.18,100.889z"/>
		</g>
		<g>
			<path fill="#FFFFFF" d="M78.596,100.59l-0.353,4.014c-2.64-1.453-7.649-1.492-7.649,0.791c0,3.379,8.932,0.938,8.932,8.176
				c0,7.119-8.502,7.199-14.018,5.547l0.391-4.244c3.455,1.609,8.35,1.963,8.35-0.83c0-3.062-8.971-1.338-8.971-8.219
				C65.275,100.178,72.266,98.664,78.596,100.59L78.596,100.59z"/>
		</g>
		<g>
			<path fill="#FFFFFF" d="M94.396,100.59l-0.351,4.014c-2.644-1.453-7.647-1.492-7.647,0.791c0,3.379,8.933,0.938,8.933,8.176
				c0,7.119-8.506,7.199-14.021,5.547l0.393-4.244c3.454,1.609,8.346,1.963,8.346-0.83c0-3.062-8.968-1.338-8.968-8.219
				C81.079,100.178,88.066,98.664,94.396,100.59L94.396,100.59z"/>
		</g>
		<g>
			<polygon fill="#FFFFFF" points="118.51,100.271 125.145,100.271 131.477,112.693 131.477,100.271 136.291,100.271 
				136.291,119.529 130.041,119.529 123.363,106.873 123.363,119.529 118.51,119.529 			"/>
		</g>
		<g>
			<path fill="#FFFFFF" d="M106.436,99.807c5.439,0.004,9.59,3.188,9.59,10.135c0,6.641-4.172,10.059-9.59,10.059
				c-5.41,0.002-9.557-3.338-9.557-10.059C96.879,102.994,101.003,99.807,106.436,99.807L106.436,99.807z M102.24,109.941
				c0,2.936,1.259,6.258,4.193,6.252c2.937-0.004,4.172-3.316,4.19-6.252c0.021-2.654-1.257-6.246-4.19-6.252
				C103.499,103.689,102.24,107.008,102.24,109.941L102.24,109.941z"/>
		</g>
		<g>
			<path fill="#FFFFFF" d="M24.779,108.385h2.873c1.293,0.021,2.459-0.756,2.446-2.176c-0.008-1.258-1.04-2.148-2.37-2.133h-2.949
				V108.385L24.779,108.385z M19.77,100.271h9.437c2.563,0,6.133,1.125,6.133,5.127c0,2.559-1.161,3.994-3.368,4.658
				c0.104-0.012,1.26,0.492,1.738,1.939c0.019,0.049,2.699,7.518,2.73,7.531h-5.564l-1.98-5.787
				c-0.304-0.889-0.965-1.477-1.903-1.477c-0.815,0-2.097-0.055-2.097,0v7.264H19.77V100.271L19.77,100.271z"/>
		</g>
	</g>
</g>
</svg>
